<?xml version="1.0" encoding="utf-8"?>
<!-- Generator: Adobe Illustrator 19.1.0, SVG Export Plug-In . SVG Version: 6.00 Build 0)  -->
<svg version="1.1" id="Ebene_1" xmlns="http://www.w3.org/2000/svg" xmlns:xlink="http://www.w3.org/1999/xlink" x="0px" y="0px"
	 viewBox="-177.5 354.4 85 85.1" style="enable-background:new -177.5 354.4 85 85.1;" xml:space="preserve">
<style type="text/css">
	.st0{fill:#46E1C8;}
</style>
<g>
	<path class="st0" d="M-133,407.8c-2.2,1.6-4.5,3.2-6.7,4.9l-14.9-25.7l13.7-7.9c3.8-2.2,7.1-2.7,9.7-1.6c3.2,1.4,4.9,5.2,3.9,8.5
		c-0.4,1.4-1.3,3-6.2,5.9c-2.2,1.3-6,3.5-6,3.5l-0.5,0.4L-133,407.8z"/>
	<path class="st0" d="M-96.2,379.5c-4.7-10.3-13.1-18.3-23.7-22.3s-22.2-3.7-32.5,1c-10.4,4.7-18.3,13.1-22.3,23.7s-3.7,22.2,1,32.5
		c4.7,10.3,13.1,18.3,23.7,22.3c4.9,1.9,10,2.8,15.1,2.8c5.9,0,11.9-1.3,17.4-3.8C-96.1,426.1-86.6,400.8-96.2,379.5z M-119.3,405.8
		c-1.3-0.2-2.5,0.1-3.7,0.8c-0.6,0.4-1.6,1.1-3.2,2.3l-4.4,3.2l0,0c-3.4,2.5-10.2,7.4-10.2,7.4l-0.6,0.5l-20.1-34.8l0.6-0.4
		c0,0,13.2-7.6,15-8.7c0.3-0.2,0.7-0.4,1-0.6l0.1-0.1c1.1-0.7,2.3-1.4,3.5-1.9c2.1-1,4.9-2,7.8-1.9c2.7,0.2,5.2,1.2,7.3,2.9
		c4.2,3.6,5.4,10,2.7,15c-1.4,2.6-3.7,4.2-5.7,5.5c-1.3,0.8-2.6,1.5-3.9,2.3l4.2,7.3l0.1-0.1c1.1-0.8,2.4-1.8,3.8-2.6
		c3.8-2.2,8.8-1.6,12,1.5c3.3,3.3,3.8,8.7,1,12.4c-1.9,2.5-4.9,4-8.1,4c-1.5,0-3.1-0.3-4.5-1c-1.7-0.8-3-2-4.3-4l-0.2-0.3l4.4-2.5
		l0.1,0.3c0.7,1.3,2,2.2,3.6,2.4c1.3,0.2,2.6,0,3.7-0.7c1.1-0.7,1.8-1.7,2-2.9C-114.8,408.8-116.6,406.3-119.3,405.8z"/>
</g>
</svg>
